<?xml version="1.0" encoding="utf-8"?>
<!-- Generator: Adobe Illustrator 22.0.1, SVG Export Plug-In . SVG Version: 6.00 Build 0)  -->
<svg version="1.1" id="Layer_1" xmlns="http://www.w3.org/2000/svg" xmlns:xlink="http://www.w3.org/1999/xlink" x="0px" y="0px"
	 viewBox="0 0 512 512" style="enable-background:new 0 0 512 512;" xml:space="preserve">
<path d="M418,233l-3.5-6.3c0.1-45.3-20.6-63.8-44.7-77.8c7.3-2,14.8-3.6,16.9-12.9c12.6-3.3,15.2-9.2,16.4-15.4
	c3.3-2.2,14.3-8.5,13.1-19.2c6.2-4.3,9.6-9.8,7.8-17.7c6.6-7.3,8.4-13.4,5.5-18.9c7.9-10,4.4-15.2,1-20.5
	c5.9-10.9,0.7-22.7-15.9-20.7c-6.6-9.9-21-7.6-23.2-7.6c-2.5-3.2-5.8-5.9-15.9-4.6c-6.6-5.9-13.9-4.9-21.5-2
	c-9-7.1-14.9-1.4-21.7,0.7c-10.9-3.6-13.4,1.3-18.7,3.3c-11.9-2.5-15.5,3-21.2,8.7l-6.6-0.1c-17.9,10.5-26.8,32-29.9,43.1
	c-3.2-11-12-32.5-29.9-43.1l-6.6,0.1c-5.7-5.8-9.3-11.2-21.2-8.7c-5.3-2-7.8-6.9-18.7-3.3c-4.5-1.4-8.6-4.3-13.4-4.2l0,0
	c-2.5,0.1-5.3,1-8.3,3.4c-7.6-2.9-14.9-3.9-21.5,2c-10.1-1.3-13.4,1.4-15.9,4.6c-2.2,0-16.6-2.3-23.3,7.6
	c-16.6-2-21.9,9.8-15.9,20.7c-3.4,5.3-6.9,10.4,1,20.5c-2.8,5.6-1.1,11.6,5.5,18.9c-1.7,7.8,1.7,13.4,7.8,17.7
	c-1.2,10.7,9.8,17,13.1,19.2c1.3,6.3,3.9,12.2,16.4,15.4c2.1,9.3,9.6,10.9,16.9,12.9c-24.1,14-44.9,32.5-44.7,77.8L94,233
	C66.3,249.8,41.4,304,80.3,347.9c2.5,13.8,6.8,23.7,10.6,34.6c5.7,44.1,42.8,64.8,52.5,67.2c14.3,10.9,29.6,21.3,50.3,28.5
	c19.5,20.1,40.6,27.7,61.8,27.7c0.3,0,0.6,0,0.9,0c21.2,0,42.3-7.6,61.8-27.7c20.7-7.3,35.9-17.6,50.3-28.5
	c9.8-2.4,46.9-23.1,52.5-67.2c3.8-10.9,8.1-20.8,10.6-34.6C470.6,304,445.7,249.8,418,233z M393,225.3
	c-1.4,18.2-95.1-63.6-78.9-66.3C357.9,151.6,394.5,177.7,393,225.3z M290.1,34.6c0.8,4.1,1.7,6.7,2.8,7.5
	c5.2-5.7,9.5-11.5,16.2-16.9c0,3.2-1.6,6.7,2.4,9.2c3.6-4.9,8.5-9.3,14.9-13c-3.1,5.4-0.5,7.1,1.1,9.3c4.9-4.3,9.6-8.6,18.7-12
	c-2.5,3.1-6,6.1-2.3,9.6c5.1-3.2,10.2-6.4,22.2-8.7c-2.7,3.1-8.3,6.1-4.9,9.2c6.4-2.5,13.4-4.3,21.2-5.3c-3.7,3.1-6.9,6.2-3.8,8.6
	c6.8-2.1,16.2-5,25.4-2.5l-5.8,5.9c-0.6,0.8,13.6,0.6,23,0.8c-3.4,4.8-6.9,9.5-9,17.8c0.9,1,5.6,0.4,10,0
	c-4.5,9.6-12.3,12-14.1,16.2c2.8,2.1,6.6,1.6,10.7,0.1c-3.2,6.8-10,11.4-15.4,16.9c1.4,1,3.7,1.6,9.3,0.9c-5,5.4-11,10.2-18.1,14.7
	c1.3,1.5,5.6,1.4,9.6,1.5c-6.4,6.4-14.7,9.7-22.5,13.9c3.9,2.7,6.6,2.1,9.6,2c-5.5,4.6-14.8,7-23.5,9.7c1.6,2.6,3.3,3.3,6.8,4
	c-9.2,5.2-22.3,2.8-26,5.4c0.9,2.6,3.4,4.3,6.4,5.7c-14.8,0.9-55.2-0.5-62.9-31.6c15.1-16.9,42.7-36.7,90.2-61.1
	c-36.9,12.5-70.2,29.3-98.1,52.3C251.5,89.2,274.1,50.1,290.1,34.6z M255.8,146.5c23.2-0.3,52,17.3,51.9,33.9
	c-0.1,14.6-20.2,26.5-51.7,26.3c-30.9-0.4-51.7-14.9-51.6-29.1C204.5,165.9,229.6,145.8,255.8,146.5L255.8,146.5z M138.3,134
	c3.5-0.7,5.2-1.4,6.8-4c-8.7-2.8-18-5.1-23.5-9.7c3,0,5.7,0.7,9.6-2c-7.8-4.2-16-7.5-22.5-13.9c4-0.1,8.3,0,9.6-1.5
	c-7.1-4.4-13.1-9.3-18.1-14.7c5.6,0.7,8,0.1,9.3-0.9c-5.4-5.5-12.2-10.1-15.4-16.9c4.2,1.4,8,2,10.7-0.1c-1.8-4.1-9.6-6.5-14.1-16.2
	c4.4,0.4,9,1,10,0c-2-8.3-5.5-13-9-17.8c9.4-0.1,23.6,0,23-0.8l-5.8-5.9c9.2-2.5,18.6,0.4,25.4,2.5c3.1-2.4-0.1-5.5-3.8-8.6
	c7.8,1,14.8,2.8,21.2,5.3c3.4-3.1-2.2-6.1-4.9-9.2c12.1,2.3,17.2,5.5,22.2,8.7c3.7-3.5,0.2-6.5-2.3-9.6c9.1,3.4,13.8,7.7,18.7,12
	c1.7-2.3,4.2-3.9,1.1-9.3c6.5,3.7,11.3,8.1,14.9,13c4-2.5,2.4-6,2.4-9.2c6.7,5.5,11,11.3,16.2,16.9c1-0.8,2-3.4,2.8-7.5
	c16,15.5,38.6,54.6,5.8,70.1c-27.9-23-61.2-39.7-98.1-52.3c47.4,24.5,75,44.2,90.1,61.1c-7.7,31-48.1,32.4-62.9,31.6
	c3-1.4,5.5-3.1,6.4-5.7C160.6,136.8,147.5,139.1,138.3,134z M192.8,157.6L192.8,157.6c16.2,2.7-77.5,84.5-78.9,66.3
	C112.3,176.3,148.9,150.2,192.8,157.6z M94.4,339.9c-22.8-18.3-30.1-71.9,12.1-96C131.9,237,115.1,349.1,94.4,339.9z M183.1,435.8
	c-12.8,7.7-44,4.6-66.2-27.3c-14.9-26.7-13-53.9-2.5-61.9c15.7-9.6,39.9,3.4,58.6,25h0C189.3,391.3,196.7,425.7,183.1,435.8z
	 M157.9,319c-23.6-15.4-27.8-50.4-9.5-78.1c18.3-27.7,52.3-37.7,75.8-22.3c23.6,15.4,27.8,50.4,9.5,78.1
	C215.4,324.5,181.5,334.4,157.9,319z M255.9,490.4c-28.2,1.2-55.9-23.1-55.6-31.6c-0.4-12.4,34.4-22,57.1-21.5v0
	c22.8-1,53.5,7.4,53.6,18.4C311.3,466.6,283.2,490.9,255.9,490.4z M314,368.4c0.2,29-25.2,52.6-56.6,52.7
	c-31.4,0.2-57-23.2-57.2-52.2c0-0.2,0-0.4,0-0.6c-0.2-29,25.2-52.6,56.6-52.7s57,23.2,57.2,52.2C314,368,314,368.2,314,368.4z
	 M278.4,293.9c-18.3-27.7-14.1-62.7,9.5-78.1c23.6-15.4,57.5-5.5,75.8,22.3c18.3,27.7,14.1,62.7-9.5,78.1
	C330.6,331.6,296.7,321.7,278.4,293.9z M393.5,410.1c-24.3,33.8-57.3,35.1-69.6,25.7c-12.8-12.1-3-49.7,14.6-70.3l0,0
	c20.1-22.7,41.7-37.6,56.7-26C405.3,349.5,411.2,387.4,393.5,410.1z M412.6,338.5c-20.7,9.2-37.5-102.9-12.1-96v0
	C442.7,266.5,435.3,320.2,412.6,338.5z"/>
</svg>
