<?xml version="1.0" encoding="utf-8"?>
<!-- Generator: Adobe Illustrator 22.0.1, SVG Export Plug-In . SVG Version: 6.00 Build 0)  -->
<svg version="1.1" id="Layer_1" xmlns="http://www.w3.org/2000/svg" xmlns:xlink="http://www.w3.org/1999/xlink" x="0px" y="0px"
	 viewBox="0 0 512 512" style="enable-background:new 0 0 512 512;" xml:space="preserve">
<g>
	<g>
		<polyline points="381.9,202.4 462.1,202.4 371.6,412 291.5,412 381.9,202.4 		"/>
		<path d="M486.3,145.8H160.9c-6.2,0-9.7,0.4-15.8,1.8c-5.9,1.3-8.2,2.1-14.5,5.1c-8.8,4.1-13.6,7.3-20.3,14.2
			c-6.7,6.8-7.6,8.5-11.2,14.8c-3.1,5.5-4.6,8.8-6.4,14.8c-2.3,7.8-3,12.4-3,20.6c0,7.7,0.7,12.2,2.8,19.6c1.4,5,2.4,7.8,4.8,12.4
			c2.4,4.7,4.1,7.2,7.4,11.4c3.2,4.1,5.2,6.2,9,9.6l62.2,60c1.1,1.1,2.6,3.2,3.4,5.4c1.2,3.3,1.3,4.3,0.9,7.1
			c-0.4,3.1-0.9,4.4-3.3,7.3c-0.9,1.1-3.2,2.7-4.2,3.3c-1.3,0.7-2,1.1-3.4,1.5c-1.3,0.3-2,0.4-3.3,0.4H6l109.7-255H506L486.3,145.8"
			/>
		<path d="M322.5,202.4L232.1,412h-40.4c0,0-2.7-0.7-2.9-2c-0.2-1.4,2.2-2.9,2.2-2.9c6.8-2.5,10.4-4.8,16.3-9.1
			c6.6-4.9,10.1-8.3,15-14.9c5.2-6.9,7.5-11.4,10.3-19.5c2.4-7,3.4-11.3,3.8-18.7c0.5-8.1-0.1-12.7-1.9-20.6
			c-1.9-8.2-3.6-12.9-7.8-20.2c-3.1-5.3-5.1-8.2-9.3-12.7l-66.5-64.1c-1-1-1.6-1.7-2.3-3c-1.1-1.8-1.7-3-2-5.1c-0.1-1.2-0.1-1.8,0-3
			c0.2-2.2,0.4-3.5,1.3-5.5c1.9-4.1,4.6-6.1,8.9-7.4c1.5-0.5,4.1-0.6,4.1-0.6L322.5,202.4"/>
	</g>
</g>
</svg>
