<?xml version="1.0" encoding="utf-8"?>
<!-- Generator: Adobe Illustrator 22.0.1, SVG Export Plug-In . SVG Version: 6.00 Build 0)  -->
<svg version="1.1" id="Layer_1" xmlns="http://www.w3.org/2000/svg" xmlns:xlink="http://www.w3.org/1999/xlink" x="0px" y="0px"
	 viewBox="0 0 512 512" style="enable-background:new 0 0 512 512;" xml:space="preserve">
<path d="M440.2,87c-4.9,25.7-17.6,50.7-31.8,63.4c41.4,21,71.3,53.4,35.2,96.2c-42.7,50.6-86,4.7-116.7-29.2
	c6.7,17.4,12.8,43.8,9.4,58.3c-8.1-9.8-17.5-38.1-20.5-55.9c-9.8,40.6-15.7,85.6-65.8,86.7c-72.4,1.6-68.7-65.7-40.3-104.6
	c-36.3,3-74.9-56.7-78.7-92.3c0,0-1.5-9.9,4.9-14.9c32.5-25.1,127.8,16.3,150.9,37.8c-1.7-7.1-1.5-19.6,4.5-25.6
	c7.9,1.9,14.4,11.7,17.1,19.3c6.5-12.4,36.4-61.6,66.7-90C339.8,17,299.2,6,256,6C117.9,6,6,117.9,6,256s111.9,250,250,250
	c138.1,0,250-111.9,250-250C506,190.8,481.1,131.5,440.2,87z M117,403.6c-13.4,0-18.7-6.2-18.7-17.1v-2.4h11.8v1.7
	c0,5.5,1.6,9,7.8,9c3.6,0,7.1-2.3,7.1-7.2c0-5.3-2.7-7.3-10.5-10c-10.5-3.6-15.4-8-15.4-17.8c0-11.4,7-17.3,18.2-17.3
	c10.5,0,18.2,4.5,18.2,15.8v1.6h-11.3c0-5.5-1.9-8.7-6.4-8.7c-5.3,0-6.7,3.4-6.7,6.8c0,3.6,1.1,5.8,6.1,8l9.1,3.9
	c8.9,3.9,11.2,8.4,11.2,15.5C137.4,398,129.8,403.6,117,403.6z M177.6,353.5h-12.8v49H153v-49h-12.8v-9.7h37.5V353.5z M235.1,402.5
	h-10.8v-46.8H224l-10.4,46.8h-9.2L194,355.6h-0.2v46.8H183v-58.7h17.6l8.4,41.4h0.2l8.5-41.4h17.5V402.5z M258.8,403.5
	c-10,0-15.9-5.7-16.3-16.5h5.3c0,6.8,3.5,12.4,11,12.4c5.9,0,11.4-3.6,11.4-13.4c0-7.6-4.5-11.7-11.6-11.7h-3.9v-4.1h2.7
	c7,0,11-3.9,11-10.8c0-6.7-3.3-10.9-9.6-10.9c-5.8,0-10.2,3.8-10.3,12h-5.3c0-9.7,5.3-16.1,15.5-16.1c9,0,14.9,5.4,14.9,14.4
	c0,6.4-3,11.6-9.4,13.2v0.2c6.9,1,11.1,6.7,11.1,13.8C275.5,396.3,269.7,403.5,258.8,403.5z M314.7,402.5h-32.2
	c0-9.6,4.4-15.9,12.2-22.4l6.2-5.3c5.8-4.9,8.1-8.9,8.1-14.5c0-7.7-4.3-11.9-10.3-11.9c-6.7,0-10.4,4.4-10.7,14.1h-5.3
	c0.2-11.3,5.5-18.2,16.4-18.2c7.9,0,15,4.7,15,15.8c0,7.1-2.1,11.8-9.6,17.9l-6.3,5.2c-6.1,5-9.3,8.8-10.2,14.9h26.6V402.5z"/>
</svg>
