<?xml version="1.0" encoding="utf-8"?>
<!-- Generator: Adobe Illustrator 22.0.1, SVG Export Plug-In . SVG Version: 6.00 Build 0)  -->
<svg version="1.1" id="Layer_1" xmlns="http://www.w3.org/2000/svg" xmlns:xlink="http://www.w3.org/1999/xlink" x="0px" y="0px"
	 viewBox="0 0 512 512" style="enable-background:new 0 0 512 512;" xml:space="preserve">
<g>
	<path d="M336.2,237.6c-5.2,0-7.8,4.2-7.8,9.1c0,4.9,2.6,9.1,7.8,9.1c5.2,0,7.8-4.2,7.8-9.1C344,241.8,341.4,237.6,336.2,237.6z"/>
	<path d="M342.8,227.4c0-4.4-2.1-7.4-6.6-7.4c-4.4,0-6.6,3-6.6,7.4c0,4.3,2.2,7.4,6.6,7.4C340.7,234.7,342.8,231.7,342.8,227.4z"/>
	<path d="M187,308.7c11.4,19.7,55.7,77.8,170.6,47.8c0,0,0,0,0,0c0,0,0,0,0,0c0,0,0,0,0,0c1.1-0.2,9.1-1.9,21-2.8
		c24.7-30.6,39.4-69.4,39.4-111.8c0-98.5-79.8-178.3-178.3-178.3c-43.8,0-83.9,15.9-114.9,42.1l-49-26.1L6,210.4l55.5,31.3
		c0,0.1,0,0.1,0,0.2c0,98.5,79.8,178.3,178.3,178.3c54.4,0,103-24.4,135.7-62.8c-9.7,1.1-15.9,2.5-15.9,2.5
		c-119.8,29.8-164.4-29-175.9-49.3l2.8,1.6L187,308.7z M306.8,370.1l15.6,18.9l-27.9,2.2L306.8,370.1z M252.4,365.1l9.5,22.6
		l-27.4-5.8L252.4,365.1z M204.2,326.7l2.2-24.4l21.4,18L204.2,326.7z M254.2,355.8l-9.5-22.6L272,339L254.2,355.8z M306.2,362.6
		l-15.6-18.9l27.9-2.2L306.2,362.6z M379.3,330l-9.1,22.8L352,336.3L379.3,330z M325.9,227.2c0-6.7,4.3-10.1,10.3-10.1
		c6,0,10.3,3.4,10.3,10.1c0,3.9-2.1,8-6.2,9v0.1c5,0.5,7.4,5.3,7.4,10.1c0,7.8-4.6,12.3-11.5,12.3c-6.8,0-11.5-4.5-11.5-12.3
		c0-4.8,2.4-9.6,7.4-10.1v-0.1C328,235.2,325.9,231.1,325.9,227.2z M282.5,216.7h12.4l5.9,29.2h0.1l6-29.2h12.3V258h-7.6v-33h-0.1
		l-7.4,33h-6.5l-7.4-33h-0.1v33h-7.6V216.7z M252.4,216.7h26.4v6.8h-9V258h-8.3v-34.5h-9V216.7z M222.9,245.1h8.3v1.2
		c0,3.9,1.1,6.4,5.5,6.4c2.5,0,5-1.6,5-5.1c0-3.8-1.9-5.2-7.4-7.1c-7.4-2.5-10.8-5.6-10.8-12.5c0-8,4.9-12.2,12.8-12.2
		c7.4,0,12.8,3.2,12.8,11.1v1.2h-8c0-3.9-1.3-6.1-4.5-6.1c-3.8,0-4.7,2.4-4.7,4.8c0,2.5,0.8,4.1,4.3,5.6l6.4,2.8
		c6.3,2.7,7.9,5.9,7.9,10.9c0,8.7-5.3,12.7-14.4,12.7c-9.4,0-13.1-4.4-13.1-12V245.1z M204.5,152.7L123,175.4L80.8,86.7L204.5,152.7
		z M76.5,87.1l42.6,89.4L12.9,206.1L76.5,87.1z M13.7,210l107.2-29.9l59.6,123.8l0,0.1L13.7,210z M197.6,333.4l-2.2,24.4l-21.4-18
		L197.6,333.4z M124.7,179.1l82.2-22.9l-23,145.9L124.7,179.1z"/>
	<path d="M372.4,364.3l-8.7,22.9l27.1-6.8L372.4,364.3z M360.5,390.1l11.1-29.2l23.5,20.6L360.5,390.1z"/>
	<path d="M375.6,357.4c35.7-3.9,119.5-2.8,126.7,91.1h3.7c-7-92.6-88-97.8-127.3-94.8L375.6,357.4z"/>
</g>
</svg>
