<?xml version="1.0" encoding="utf-8"?>
<!-- Generator: Adobe Illustrator 22.0.1, SVG Export Plug-In . SVG Version: 6.00 Build 0)  -->
<svg version="1.1" id="Layer_1" xmlns="http://www.w3.org/2000/svg" xmlns:xlink="http://www.w3.org/1999/xlink" x="0px" y="0px"
	 viewBox="0 0 512 512" style="enable-background:new 0 0 512 512;" xml:space="preserve">
<style type="text/css">
	.st0{fill:#231F20;}
</style>
<title>polarity</title>
<polygon class="st0" points="400.3,246.9 424.9,246.9 424.9,222.3 441.3,222.3 441.3,246.9 465.8,246.9 465.8,263.2 441.3,263.2 
	441.3,287.8 424.9,287.8 424.9,263.2 400.3,263.2 "/>
<path class="st0" d="M378.8,255.1l54.3-53.6l54.3,53.6l-54.3,55L378.8,255.1 M433.1,182.3l-66.7,65.8h-89.7
	c-3.7-11.5-16.1-17.8-27.6-14c-6.6,2.2-11.9,7.4-14,14c-3.8,11.5,2.5,23.9,14,27.6c11.5,3.8,23.9-2.5,27.6-14h89.5l66.9,67.7
	l73.5-74.5L433.1,182.3"/>
<rect x="46.1" y="246.7" class="st0" width="65.4" height="16.6"/>
<path class="st0" d="M78.8,310.1l-54.3-55l54.3-53.6l54.3,53.6L78.8,310.1 M276.7,292.1c-20.4,11.6-46.4,4.4-57.9-16.1
	c-11.6-20.4-4.4-46.4,16.1-57.9c20.4-11.6,46.4-4.4,57.9,16.1c0.1,0.2,0.2,0.3,0.3,0.5h22.7c-11.5-33-47.6-50.4-80.6-38.9
	c-23,8-39.4,28.5-42.1,52.8h-47.6l-66.7-66.1L5.2,255l73.5,74.5l66.9-67.7H193c3.8,34.7,35.1,59.8,69.8,56c24.2-2.7,44.8-19,52.8-42
	H293C289.2,282.6,283.5,288.3,276.7,292.1"/>
</svg>
