<?xml version="1.0" encoding="utf-8"?>
<!-- Generator: Adobe Illustrator 22.0.1, SVG Export Plug-In . SVG Version: 6.00 Build 0)  -->
<svg version="1.1" id="svg5747" xmlns:svg="http://www.w3.org/2000/svg"
	 xmlns="http://www.w3.org/2000/svg" xmlns:xlink="http://www.w3.org/1999/xlink" x="0px" y="0px" viewBox="0 0 512 512"
	 style="enable-background:new 0 0 512 512;" xml:space="preserve">
<style type="text/css">
	.st0{fill:#211E1E;}
</style>
<path id="path5736" class="st0" d="M471,145.7V133h5.6c3.8,0,4.9,2.5,4.9,5.3c0,1.9,0.3,5.5,1,7.3h3.7V145c-0.8,0-1-1.3-1.1-1.8
	c-0.3-2.1-0.5-4.3-0.6-6.4c-0.5-3.8-1.4-5-5.1-5.4v-0.1c3.3-0.5,5.4-2.9,5.5-6.2c0.2-6.6-3.6-8.2-9.7-8.2h-7.4v28.8H471 M471,130.1
	v-10.4h4.5c2.1,0,6,0.1,6.1,5.1c0.1,5-4.1,5.3-5.6,5.3H471"/>
<path id="path5738" class="st0" d="M503.7,133.3c0-15.5-12.5-28-28-28c-15.6,0-28.2,12.5-28.2,28c0,15.7,12.6,28.2,28.2,28.2
	C491.1,161.4,503.7,149,503.7,133.3 M475.6,157.2c-13.2,0-23.9-10.7-23.9-23.9c0-13.2,10.7-23.9,23.9-23.9
	c13.2,0,23.9,10.7,23.9,23.9C499.4,146.5,488.8,157.2,475.6,157.2"/>
<path id="path5740" class="st0" d="M506,372.8c0-6.1-1.7-11.9-4.6-16.8l0.2-0.1L410.9,105l-94.1,0l75.9,210.1h-52.9L262.6,105
	l-222.1,0c-0.5,0-1-0.1-1.5-0.1c-18.2,0-33,14.8-33,33c0,5.5,1.4,10.7,3.7,15.2l39.3,111c2.6,15.6,16.1,27.6,32.5,27.6l0,0.4l41.9,0
	l-25.9,114l94.6,0.8l26.2-115.2H236l41.4,114.4h196.5C491.5,405.5,506,390.6,506,372.8 M128.6,223.1l-18-50.8h82.2l18.4,50.8H128.6"
	/>
</svg>
